<svg width="378pt" height="372pt" viewBox="0 0 378 372" version="1.1" xmlns="http://www.w3.org/2000/svg" xmlns:xlink="http://www.w3.org/1999/xlink">
<g id="#0000CCff">

<a xlink:href="#hotel-region">
	<path fill="#0000CC" opacity="1.00" d=" M 138.87 0.00 L 151.47 0.00 C 155.34 0.32 159.19 0.82 163.06 1.22 C 164.07 9.18 166.27 16.96 168.71 24.57 C 173.19 32.36 183.83 28.85 191.02 30.43 C 189.88 36.58 187.08 43.97 190.89 49.79 C 192.35 54.51 197.56 55.20 201.30 57.33 C 193.97 64.00 184.95 69.53 180.74 78.89 C 170.81 73.61 160.28 68.77 148.94 67.78 C 143.65 67.16 139.59 70.85 135.29 73.24 C 131.45 75.76 126.60 76.13 122.90 78.88 C 120.11 80.99 116.62 82.52 113.07 82.13 C 109.21 80.39 104.75 78.53 102.61 74.61 C 102.68 69.62 104.99 64.91 105.17 59.92 C 104.65 52.74 101.21 46.15 100.40 39.03 C 100.93 37.08 102.57 35.65 103.69 34.02 C 103.02 27.69 102.27 21.35 100.95 15.12 C 106.44 12.81 111.54 9.61 117.18 7.65 C 124.62 5.75 131.74 2.84 138.87 0.00 Z" />
</a>

<a xlink:href="#hotel-region">
	<path fill="#0000CC" opacity="1.00" d=" M 89.65 21.54 C 92.02 18.64 95.69 17.42 99.03 16.06 C 100.29 21.66 101.07 27.35 102.00 33.01 C 100.37 34.16 98.72 35.31 97.09 36.46 C 99.21 42.90 101.27 49.41 102.23 56.14 C 102.93 64.47 100.39 72.81 97.19 80.41 C 95.34 85.03 89.08 84.96 85.34 86.70 C 88.04 89.54 90.88 92.23 93.69 94.96 C 86.42 101.28 79.88 108.95 70.83 112.80 C 70.73 109.49 70.70 106.16 70.64 102.86 C 69.38 103.17 66.87 103.80 65.62 104.11 C 62.84 109.19 57.04 110.18 52.04 111.61 C 47.62 112.92 43.99 115.87 39.93 117.93 C 36.36 119.83 32.14 119.57 28.27 120.10 C 25.12 126.05 21.32 131.99 15.02 134.97 C 10.28 129.59 5.41 124.32 0.00 119.60 L 0.00 116.89 C 5.17 110.66 11.22 104.45 12.71 96.17 C 13.94 82.07 6.76 68.82 7.53 54.73 C 14.80 53.54 21.90 51.44 28.62 48.44 C 44.12 40.44 61.87 38.93 78.13 33.05 C 83.44 30.96 86.14 25.66 89.65 21.54 Z" />
</a>


	<path fill="#0000CC" opacity="0.50" d=" M 308.23 35.31 C 312.43 32.04 315.74 27.88 319.33 24.01 C 325.13 25.76 329.48 30.55 335.04 32.96 C 339.74 34.77 341.48 39.84 342.31 44.37 C 343.61 52.61 345.27 60.78 346.38 69.05 C 351.65 86.22 360.61 102.31 362.67 120.39 C 363.29 124.63 363.48 129.83 360.21 133.14 C 355.91 136.63 349.98 138.03 346.67 142.68 C 343.20 147.31 341.01 152.73 338.05 157.67 C 328.36 155.11 317.09 154.15 310.66 145.49 C 311.91 143.57 313.38 141.77 314.35 139.68 C 313.77 135.91 311.32 132.69 310.06 129.16 C 307.51 128.56 304.94 127.95 302.61 126.71 C 298.48 125.07 293.55 124.11 290.62 120.43 C 288.42 117.27 288.01 113.22 285.92 110.01 C 284.07 107.68 281.44 106.16 279.02 104.49 C 278.51 98.46 278.18 92.41 277.92 86.36 C 283.34 85.12 288.74 83.71 294.05 82.02 C 298.56 80.68 300.77 76.07 304.04 73.01 C 308.76 67.79 317.10 64.67 317.24 56.61 C 315.71 49.07 312.57 41.71 308.23 35.31 Z" />



	<path fill="#0000CC" opacity="0.50" d=" M 205.22 27.18 C 208.66 24.48 213.25 25.22 217.30 25.66 C 227.91 27.36 238.49 29.26 249.18 30.45 C 270.59 32.74 291.81 28.22 313.11 26.85 C 310.54 30.32 304.22 32.82 307.25 38.01 C 310.44 43.49 310.36 50.70 315.67 54.83 C 312.11 64.37 303.02 70.10 296.48 77.47 C 280.05 86.06 260.57 86.45 244.26 95.40 C 240.85 97.30 237.04 98.25 233.51 99.84 C 230.68 101.14 229.71 104.37 228.22 106.85 C 222.29 106.28 216.26 106.13 210.42 104.93 C 207.39 103.23 207.39 99.28 206.32 96.32 C 201.25 93.65 196.14 91.05 191.15 88.23 C 191.58 82.75 188.67 78.89 183.80 77.27 C 186.39 74.38 189.27 71.76 191.97 68.96 C 196.18 64.75 202.02 61.65 203.84 55.53 C 200.99 54.23 198.01 53.14 195.27 51.64 C 193.32 49.40 191.75 46.72 190.82 43.90 C 191.06 40.14 192.50 36.58 193.38 32.95 C 197.85 32.22 201.74 29.95 205.22 27.18 Z" />



	<path fill="#0000CC" opacity="0.50" d=" M 134.69 78.78 C 138.03 72.92 144.46 70.66 150.56 68.78 C 156.58 74.10 165.84 71.96 171.87 77.12 C 176.04 80.66 181.90 80.46 186.99 81.62 C 186.00 91.60 196.96 93.27 203.03 97.90 C 205.02 100.17 205.54 103.44 206.99 106.08 C 203.70 108.70 202.69 112.80 204.04 116.73 C 199.82 119.45 195.45 122.98 194.53 128.24 C 194.78 130.25 195.61 132.14 195.96 134.14 C 194.51 137.80 190.51 140.49 191.70 145.02 C 192.13 149.95 190.99 154.88 187.61 158.71 C 182.76 160.45 177.52 158.27 172.48 158.40 C 169.00 152.04 162.17 148.48 155.25 147.24 C 153.82 147.88 152.56 148.82 151.26 149.69 C 146.14 146.95 140.82 144.29 137.40 139.36 C 131.65 139.22 126.68 136.04 121.38 134.21 C 123.15 131.99 125.11 129.92 127.19 127.99 C 127.43 122.00 121.92 119.48 118.56 115.63 C 117.34 108.77 123.01 103.72 123.83 97.30 C 122.48 95.33 120.71 93.72 119.06 92.02 C 122.10 87.37 123.36 81.61 127.21 77.53 C 129.74 77.62 132.21 78.31 134.69 78.78 Z" />


<a xlink:href="#hotel-region">
	<path fill="#0000CC" opacity="1.00" d=" M 100.16 77.14 C 105.65 81.86 112.31 84.97 119.67 84.62 C 118.60 87.62 117.65 90.69 117.18 93.85 C 118.57 96.05 120.62 97.71 122.44 99.54 C 120.83 100.99 119.17 102.39 117.50 103.76 C 117.03 108.36 116.58 112.97 116.15 117.58 C 119.29 120.40 122.45 123.21 125.31 126.32 C 123.59 127.62 121.86 128.93 120.15 130.25 C 120.11 131.95 120.02 135.35 119.98 137.05 C 122.89 137.27 125.80 137.45 128.71 137.72 C 129.09 139.14 129.85 141.98 130.23 143.40 C 132.14 142.43 134.02 141.40 135.89 140.35 C 138.40 146.04 143.85 149.32 149.59 151.16 C 152.56 153.22 154.98 151.07 157.28 149.70 C 162.84 152.26 168.27 155.20 171.49 160.71 C 174.89 160.52 178.29 160.30 181.69 160.11 C 180.45 167.63 176.42 175.05 169.59 178.83 C 167.40 182.22 169.96 187.00 168.55 190.73 C 165.37 193.91 159.93 191.05 156.77 193.74 C 153.92 201.58 155.46 210.32 154.36 218.53 C 152.42 218.19 150.49 217.57 148.51 217.73 C 145.78 219.51 143.60 221.97 141.12 224.06 C 143.15 227.65 145.00 231.33 147.01 234.93 C 143.54 236.33 139.98 237.51 136.37 238.49 C 134.87 232.11 133.49 225.70 132.59 219.21 C 130.68 218.64 126.86 217.50 124.96 216.93 C 125.25 212.82 124.35 208.89 122.39 205.28 C 117.03 207.62 111.90 211.98 105.63 210.45 C 100.60 208.82 95.48 205.84 92.96 201.02 C 89.50 195.09 84.85 189.98 81.28 184.13 C 79.00 183.15 75.39 184.68 73.50 182.53 C 70.13 178.75 67.19 174.59 63.45 171.15 C 63.58 162.57 63.88 153.96 63.02 145.42 C 62.66 141.63 60.08 137.81 61.83 134.10 C 64.37 127.54 68.75 121.87 70.98 115.15 C 76.40 114.03 81.28 111.05 84.97 106.96 C 88.28 103.29 92.54 100.53 95.44 96.50 C 96.79 91.79 91.63 90.27 89.03 87.66 C 92.42 86.64 95.78 85.48 99.08 84.21 C 99.44 81.85 99.80 79.50 100.16 77.14 Z" />
</a>

<a xlink:href="#hotel-region">
	<path fill="#0000CC" opacity="1.00" d=" M 246.27 97.48 C 255.44 92.57 265.68 90.35 275.76 88.19 C 275.97 94.30 276.07 100.44 277.02 106.49 C 279.92 108.55 283.49 110.33 284.90 113.82 C 286.53 117.59 287.32 122.48 291.23 124.74 C 296.78 127.96 303.04 129.81 309.16 131.62 C 310.67 136.87 310.20 142.31 309.90 147.68 C 309.54 150.58 313.15 151.81 314.87 153.20 C 321.50 158.06 330.31 156.72 337.65 159.98 C 332.95 162.16 330.53 166.73 327.31 170.46 C 324.88 173.57 320.36 171.24 317.26 171.54 C 309.37 177.53 299.04 176.50 290.16 180.04 C 291.72 186.20 290.82 192.55 289.59 198.69 C 288.84 202.44 283.86 202.94 281.35 204.57 C 281.89 209.21 285.98 212.06 287.26 216.34 C 288.81 224.25 288.13 232.37 287.34 240.35 C 283.01 240.74 278.69 241.57 274.75 243.46 C 269.95 240.87 264.69 238.71 261.37 234.15 C 258.32 234.67 255.27 235.31 252.23 235.85 C 247.10 231.92 242.41 227.48 237.61 223.17 C 239.37 220.86 242.26 218.88 241.31 215.42 C 240.41 211.67 238.48 208.25 236.37 205.07 C 239.97 204.16 244.56 204.14 246.85 200.68 C 247.28 195.67 245.24 191.08 243.73 186.47 C 238.92 185.84 233.68 187.00 229.14 184.95 C 228.30 181.54 227.63 178.09 227.14 174.61 C 222.45 171.73 220.59 166.57 218.85 161.64 C 212.91 162.00 207.09 163.60 201.14 163.71 C 197.22 162.47 194.00 159.69 190.44 157.71 C 191.61 155.92 192.84 154.18 194.11 152.46 C 192.80 146.71 194.08 140.70 198.22 136.42 C 198.14 132.93 197.98 129.45 198.34 125.97 C 200.30 122.59 203.47 120.18 206.88 118.40 C 206.62 115.48 206.26 112.53 205.99 109.62 C 213.70 106.18 222.36 108.41 230.39 108.87 C 231.45 106.59 232.60 104.36 233.79 102.15 C 237.99 100.73 242.35 99.62 246.27 97.48 Z" />
</a>

<a xlink:href="#hotel-region">
	<path fill="#0000CC" opacity="1.00" d=" M 66.74 105.27 C 67.31 105.19 68.46 105.04 69.04 104.96 C 68.05 111.04 69.25 118.06 65.09 123.10 C 61.44 127.80 57.83 133.50 59.26 139.76 C 61.38 150.69 62.72 161.79 61.09 172.92 C 65.22 176.65 69.36 180.54 71.92 185.57 C 74.79 185.61 77.68 185.64 80.56 185.59 C 80.41 189.69 79.17 193.62 77.68 197.40 C 76.64 194.82 75.68 192.20 74.68 189.60 C 71.26 190.43 67.52 190.63 64.39 192.41 C 61.50 194.30 60.00 197.64 58.42 200.55 C 56.35 204.42 53.47 207.79 51.39 211.66 C 50.80 211.78 49.60 212.04 49.01 212.17 C 47.90 210.50 46.81 208.83 45.72 207.16 C 45.08 207.12 43.78 207.05 43.14 207.02 C 41.50 209.91 40.46 213.37 37.74 215.46 C 30.09 215.77 23.48 211.79 17.14 208.09 C 17.91 204.45 18.54 200.77 19.14 197.10 C 16.98 194.67 14.80 192.26 12.65 189.84 C 15.31 185.55 19.41 181.57 18.76 176.03 C 18.83 167.87 18.44 159.39 14.50 152.07 C 17.41 147.40 18.37 141.65 16.61 136.38 C 19.35 135.12 22.79 134.41 24.37 131.55 C 26.15 128.49 27.38 125.14 29.21 122.10 C 32.43 121.54 35.79 122.97 38.92 121.89 C 44.18 119.08 48.69 114.63 54.64 113.20 C 59.09 111.45 67.06 112.54 66.74 105.27 Z" />
</a>

<a xlink:href="#hotel-region">
	<path fill="#0000CC" opacity="1.00" d=" M 189.88 160.16 C 197.12 167.69 207.74 166.06 216.90 164.17 C 219.05 168.65 221.47 172.98 224.00 177.25 C 225.93 180.31 225.34 185.23 228.42 187.47 C 232.92 187.89 237.46 188.06 241.98 188.22 C 243.55 192.74 246.09 197.96 242.30 202.07 C 239.70 201.65 237.09 201.26 234.48 200.92 C 234.60 206.65 236.69 211.95 239.30 216.97 C 234.64 222.18 232.33 229.17 227.01 233.83 C 224.64 234.30 219.90 235.24 217.52 235.71 C 218.03 239.58 218.93 243.38 220.01 247.14 C 217.86 246.44 215.72 245.71 213.57 245.02 C 211.82 249.00 210.15 253.04 208.11 256.90 C 205.44 255.18 202.68 253.58 200.03 251.84 C 197.39 249.69 196.27 245.15 192.36 245.04 C 188.99 244.50 185.02 245.21 182.16 242.87 C 176.76 238.48 169.02 242.51 163.10 239.16 C 157.47 236.16 148.78 235.54 146.47 228.53 C 142.88 221.96 151.29 218.97 156.04 220.43 C 156.80 212.26 156.68 203.98 158.30 195.91 C 163.31 195.69 167.97 193.99 172.23 191.45 C 171.65 187.90 169.74 184.10 171.31 180.54 C 173.08 179.46 174.91 178.53 176.83 177.72 C 180.81 171.67 182.45 163.04 189.88 160.16 Z" />
</a>

<a xlink:href="#hotel-region">	
	<path fill="#0000CC" opacity="1.00" d=" M 335.48 162.44 C 341.92 164.73 349.75 165.99 354.23 171.63 C 357.33 183.65 350.68 196.37 355.82 208.02 C 357.72 212.71 358.49 217.74 360.17 222.51 C 364.32 230.35 369.43 237.64 373.51 245.52 C 375.43 248.93 373.77 252.81 374.24 256.44 C 374.93 259.12 376.63 261.40 378.00 263.77 L 378.00 268.70 C 376.58 272.67 374.17 276.40 370.13 278.18 C 365.17 281.04 361.34 285.31 357.46 289.43 C 354.04 287.54 350.98 284.57 347.00 284.01 C 342.00 283.65 339.11 288.05 334.90 289.59 C 326.59 289.09 317.58 287.86 310.58 282.99 C 313.63 280.90 316.71 278.86 319.80 276.81 C 319.96 275.40 320.13 274.00 320.30 272.61 C 315.88 270.59 311.37 268.79 306.86 267.01 C 306.55 264.48 305.95 259.43 305.65 256.91 C 301.49 257.54 297.34 258.22 293.19 258.93 C 291.46 252.36 289.29 245.74 290.04 238.84 C 291.03 228.10 292.54 215.25 284.53 206.60 C 286.63 204.69 290.59 203.80 291.47 200.64 C 292.42 194.82 292.77 188.92 293.33 183.06 C 293.31 181.69 294.89 181.37 295.87 180.90 C 303.06 178.26 310.95 178.20 318.03 175.12 C 321.64 173.71 325.90 174.43 329.26 172.40 C 331.98 169.55 333.54 165.83 335.48 162.44 Z" />
</a>

<a xlink:href="#hotel-region">
	<path fill="#0000CC" opacity="1.00" d=" M 63.87 196.98 C 65.79 193.60 69.77 192.72 73.28 191.93 C 73.93 194.91 74.59 197.92 75.23 200.91 C 75.94 200.95 77.38 201.01 78.10 201.05 C 79.75 198.05 81.20 194.96 82.65 191.87 C 90.07 197.99 92.67 209.68 103.03 211.96 C 109.18 214.91 115.11 211.07 120.89 209.43 C 124.42 211.23 123.05 215.77 122.77 218.78 C 124.65 219.42 128.42 220.71 130.30 221.35 C 130.84 225.32 131.54 229.28 132.59 233.16 C 130.53 233.39 128.44 233.46 126.42 233.94 C 122.86 238.83 122.44 245.58 117.93 249.93 C 112.95 254.82 111.57 261.76 108.75 267.87 C 104.96 274.38 96.91 278.19 95.16 285.89 C 96.53 289.60 99.96 292.06 102.25 295.20 C 96.67 296.67 92.05 300.11 87.71 303.78 C 84.17 295.03 77.09 288.46 72.83 280.24 C 74.78 278.60 77.01 277.35 79.22 276.10 C 78.53 273.24 79.63 269.14 77.05 266.92 C 73.50 263.65 68.28 266.76 64.28 266.70 C 58.35 260.58 49.50 259.91 42.69 255.30 C 39.84 252.43 38.83 248.28 37.27 244.65 C 33.44 243.96 29.75 242.73 26.01 241.70 C 24.27 245.63 24.96 252.10 18.71 251.57 C 21.62 245.16 24.98 238.95 27.43 232.35 C 29.60 227.12 28.30 221.32 29.43 215.88 C 32.95 216.67 36.47 217.43 40.01 218.16 C 41.69 215.44 43.15 212.60 44.71 209.82 C 45.61 211.74 46.50 213.68 47.40 215.61 C 56.48 213.82 58.82 203.36 63.87 196.98 Z" />
</a>


	<path fill="#0000CC" opacity="0.50" d=" M 230.44 234.40 C 232.97 231.70 234.80 228.45 236.91 225.43 C 240.46 229.71 244.28 233.92 249.27 236.54 C 253.23 238.12 258.17 236.56 261.83 239.13 C 265.29 241.31 268.72 243.71 272.63 245.02 C 277.43 245.64 281.99 243.85 286.62 242.93 C 288.00 248.85 290.51 254.71 290.68 260.79 C 285.25 272.90 273.45 280.14 264.57 289.51 C 257.18 292.77 249.28 295.03 241.45 297.08 C 237.88 299.55 234.62 296.49 233.55 293.42 C 231.95 288.81 232.56 283.69 230.88 279.11 C 224.71 278.09 218.39 278.54 212.17 278.16 C 212.79 275.56 213.37 272.92 213.94 270.33 C 212.07 268.11 209.92 266.12 208.31 263.70 C 209.20 258.24 213.35 253.96 214.74 248.61 C 217.32 248.68 219.94 248.79 222.54 248.86 C 222.02 245.05 220.85 241.43 219.70 237.79 C 222.85 235.99 228.10 237.80 230.44 234.40 Z" />



	<path fill="#0000CC" opacity="0.50" d=" M 127.30 238.61 C 127.62 235.79 131.39 236.38 133.55 235.53 C 133.85 237.08 134.16 238.64 134.47 240.21 C 142.57 239.46 150.99 235.73 159.06 238.91 C 163.59 239.88 164.95 245.04 165.49 249.06 C 164.07 254.79 160.65 259.87 159.19 265.61 C 158.07 269.35 160.82 272.22 162.38 275.23 C 159.66 277.50 156.91 280.08 155.77 283.53 C 155.46 287.91 155.56 292.31 155.69 296.70 C 151.31 298.78 146.77 300.46 142.04 301.57 C 141.90 306.22 140.93 310.99 136.84 313.83 C 133.93 310.07 131.09 306.25 127.85 302.76 C 129.04 301.93 130.23 301.11 131.44 300.31 C 131.59 298.85 131.90 295.92 132.06 294.46 C 126.99 293.61 120.74 295.28 116.56 291.46 C 111.79 287.03 106.25 283.46 100.29 280.88 C 103.90 278.04 107.18 274.76 110.00 271.14 C 113.04 265.92 114.04 259.67 117.89 254.90 C 121.43 249.76 126.28 245.00 127.30 238.61 Z" />


<a xlink:href="#hotel-region">
	<path fill="#0000CC" opacity="1.00" d=" M 168.33 243.16 C 173.16 240.25 178.49 242.17 181.65 246.24 C 186.01 246.90 192.03 245.48 195.01 249.81 C 197.87 253.89 202.43 256.07 206.62 258.53 C 206.44 261.00 206.24 263.45 206.08 265.95 C 208.06 267.90 210.03 269.86 212.01 271.82 C 210.90 273.50 209.79 275.18 208.70 276.88 C 209.94 278.89 211.20 280.88 212.38 282.93 C 208.41 284.19 204.26 284.66 200.10 284.46 C 196.94 287.50 193.76 290.52 190.71 293.68 C 191.87 295.04 193.04 296.41 194.18 297.78 C 189.83 301.99 185.54 306.47 183.01 312.05 C 185.21 316.81 188.06 321.34 188.58 326.79 C 191.35 328.37 195.31 329.02 196.55 332.34 C 197.37 334.32 197.83 336.42 198.34 338.49 C 192.75 341.35 188.03 345.55 185.93 351.58 C 179.64 348.78 174.93 342.87 174.03 335.96 C 173.66 331.60 168.84 331.04 165.94 328.92 C 162.16 326.86 165.97 321.11 164.55 318.05 C 160.16 316.95 155.75 315.88 151.54 314.22 C 148.13 311.76 145.49 308.39 142.58 305.39 C 148.10 303.00 153.58 300.50 158.99 297.86 C 158.30 293.76 157.35 289.61 157.60 285.43 C 159.44 281.62 162.93 279.00 165.57 275.79 C 164.54 272.75 162.57 270.16 160.80 267.53 C 164.88 259.92 166.93 251.58 168.33 243.16 Z" />
</a>


	<path fill="#0000CC" opacity="0.50" d=" M 292.90 262.89 C 295.62 260.54 299.48 260.02 302.75 258.65 C 304.85 261.78 303.09 267.75 306.89 269.86 C 310.20 271.58 313.82 272.61 317.24 274.11 C 315.01 276.28 312.56 278.25 310.59 280.67 C 309.18 283.08 309.20 287.56 312.54 288.17 C 319.80 289.73 327.13 292.46 334.69 291.38 C 339.09 290.18 342.85 287.23 347.47 286.70 C 350.27 287.98 352.76 289.84 355.38 291.47 C 347.39 301.99 340.12 313.04 333.18 324.27 C 330.14 329.15 326.01 334.24 327.28 340.43 C 327.84 347.00 328.04 353.62 329.34 360.10 C 331.12 364.58 334.93 367.89 337.36 372.00 L 333.70 372.00 C 325.67 369.67 317.97 366.27 310.52 362.51 C 305.50 360.02 303.28 354.41 298.78 351.28 C 294.12 348.60 288.63 348.37 283.42 348.23 C 282.01 348.04 280.09 348.24 279.38 346.70 C 275.19 338.66 272.42 329.97 269.90 321.30 C 269.28 313.24 267.62 305.30 266.56 297.30 C 265.46 289.91 273.19 285.07 277.79 280.73 C 284.19 276.01 287.96 268.91 292.90 262.89 Z" />



	<path fill="#0000CC" opacity="0.50" d=" M 213.79 283.74 C 218.11 281.00 223.78 279.55 228.76 281.08 C 230.53 287.07 228.77 296.18 235.38 299.76 C 245.51 301.25 254.10 294.06 263.87 292.76 C 265.46 302.87 265.63 313.16 267.29 323.24 C 271.27 330.77 272.79 339.25 276.07 347.08 C 271.62 347.41 267.15 347.33 262.70 347.30 C 261.57 350.07 260.37 352.84 259.04 355.53 C 252.15 351.25 243.91 348.72 235.80 350.92 C 230.04 353.75 226.17 358.97 223.33 364.58 C 221.86 363.33 220.40 362.09 218.94 360.85 C 217.14 361.59 215.34 362.34 213.54 363.08 C 214.19 359.23 214.66 355.35 215.22 351.50 C 213.03 351.20 208.65 350.60 206.46 350.30 C 203.34 344.13 201.28 337.52 198.78 331.10 C 197.62 327.77 193.98 326.64 191.20 325.02 C 190.27 320.32 188.02 316.11 185.56 312.07 C 189.09 307.16 193.77 303.12 196.88 297.93 C 196.42 296.16 195.47 294.59 194.63 292.99 C 199.49 286.80 207.93 288.17 213.79 283.74 Z" />


</g>
</svg>